<svg width="12" height="14" viewBox="0 0 12 14" fill="none" xmlns="http://www.w3.org/2000/svg">
<path fill-rule="evenodd" clip-rule="evenodd" d="M11.8291 7.17053C12.057 7.39834 12.057 7.76768 11.8291 7.99549L6.49581 13.3288C6.38642 13.4382 6.23804 13.4997 6.08333 13.4997C5.92862 13.4997 5.78025 13.4382 5.67086 13.3288L0.337522 7.99549C0.109716 7.76768 0.109716 7.39834 0.337522 7.17053C0.565328 6.94272 0.934673 6.94272 1.16248 7.17053L5.5 11.508L5.5 0.916341C5.5 0.594175 5.76117 0.333008 6.08333 0.333008C6.4055 0.333008 6.66667 0.594175 6.66667 0.916341L6.66667 11.508L11.0042 7.17053C11.232 6.94272 11.6013 6.94272 11.8291 7.17053Z" fill="#343A40"/>
</svg>

