<svg width="1407" height="900" viewBox="0 0 1407 900" fill="none" xmlns="http://www.w3.org/2000/svg">
<path d="M1113.55 448.788L1461.38 627.113C1541.93 668.411 1571.14 774.04 1526.18 861.753C1505.01 903.506 1469.04 935.866 1425.27 952.519C1404.76 960.399 1382.83 963.904 1360.88 962.809C1338.93 961.713 1317.45 956.042 1297.81 946.158L618.977 598.137C599.339 588.243 577.85 582.563 555.892 581.464C533.934 580.364 511.992 583.869 491.477 591.752C447.71 608.3 411.749 640.643 390.687 682.401C389.681 684.363 388.652 686.371 387.646 688.333C346.941 774.87 376.494 876.723 455.271 917.11L971.831 1181.94C991.06 1141.8 995.286 1096.1 983.745 1053.1C978.173 1031.85 968.216 1011.99 954.514 994.809C940.811 977.627 923.667 963.496 904.181 953.324L225.299 605.279C205.813 595.107 188.669 580.976 174.966 563.794C161.264 546.611 151.307 526.757 145.735 505.507C133.716 460.248 138.989 412.15 160.527 370.592C205.495 282.879 308.311 244.936 388.865 286.234L1138.11 670.352C1218.71 711.673 1321.5 673.66 1366.54 585.807C1367.57 583.798 1368.58 581.837 1369.51 580.015C1388.62 539.828 1392.85 494.161 1381.45 451.127C1375.88 429.869 1365.91 410.007 1352.2 392.82C1338.49 375.633 1321.34 361.501 1301.84 351.332L644.509 14.3357C603.9 100.686 633.592 202.728 712.135 242.995L1440.95 616.639" fill="#43A1F7"/>
</svg>

