<svg width="1440" height="900" viewBox="0 0 1440 900" fill="none" xmlns="http://www.w3.org/2000/svg">
<mask id="path-1-inside-1_3515_26054" fill="white">
<path d="M1156.43 275.515L1629.01 411.62C1739.66 442.509 1802.23 572.34 1769.16 697.585C1755.07 756.472 1719.13 808.094 1668.35 842.378C1645.85 858.191 1619.98 868.776 1592.7 873.333C1565.41 877.89 1537.43 876.299 1510.87 868.682L1038.29 732.577L1400.59 836.103L1038.29 732.577L587.718 603.349C561.13 595.934 533.189 594.448 505.94 598.999C478.692 603.55 452.825 614.024 430.233 629.653C379.903 664.372 344.09 715.809 329.423 774.446C329.423 777.583 327.825 780.599 327.825 783.737C301.147 907.414 362.493 1031.09 469.696 1061.98L1172.17 1263C1186.1 1205.85 1179.41 1145.72 1153.24 1092.87C1141.51 1067.41 1124.52 1044.62 1103.36 1025.92C1082.2 1007.23 1057.32 993.052 1030.3 984.274L579.358 855.288L327.333 782.892L216.688 752.003L579.358 855.288L107.395 719.304C80.1358 710.976 55.0349 696.959 33.8143 678.214C12.5938 659.47 -4.24403 636.442 -15.544 610.71C-41.8853 554.733 -47.9996 491.616 -32.8783 431.77C0.192238 306.525 115.263 227.613 225.293 260.07L697.994 396.175L253.815 267.793L697.994 396.175L1243.23 552.31C1353.87 583.199 1468.45 505.976 1501.4 380.731C1501.76 378.125 1502.29 375.546 1503 373.009C1516.13 315.809 1509.47 255.946 1484.07 202.877C1472.28 177.451 1455.29 154.684 1434.13 135.999C1412.98 117.314 1388.13 103.112 1361.13 94.2828L468.713 -162C441.912 -38.323 503.381 85.3539 610.461 116.364L1157.05 275.515L1505.21 376.025L1602.21 404.26"/>
</mask>
<path d="M1629.01 411.62L1628.46 413.542L1628.46 413.544L1628.47 413.546L1629.01 411.62ZM1769.16 697.585L1767.23 697.074L1767.22 697.097L1767.22 697.12L1769.16 697.585ZM1668.35 842.378L1667.23 840.72L1667.22 840.731L1667.2 840.741L1668.35 842.378ZM1510.87 868.682L1510.31 870.604L1510.31 870.604L1510.87 868.682ZM1038.29 732.577L1038.84 730.654L1037.74 734.499L1038.29 732.577ZM1038.29 732.577L1037.74 734.499L1037.74 734.5L1038.29 732.577ZM587.718 603.349L588.269 601.427L588.262 601.425L588.255 601.423L587.718 603.349ZM430.233 629.653L431.368 631.3L431.371 631.298L430.233 629.653ZM329.423 774.446L327.483 773.961L327.423 774.199V774.446H329.423ZM327.825 783.737L329.78 784.158L329.825 783.95V783.737H327.825ZM469.696 1061.98L469.142 1063.9L469.146 1063.9L469.696 1061.98ZM1172.17 1263L1171.62 1264.92L1173.62 1265.5L1174.11 1263.47L1172.17 1263ZM1153.24 1092.87L1151.42 1093.71L1151.43 1093.73L1151.44 1093.76L1153.24 1092.87ZM1030.3 984.274L1030.92 982.372L1030.88 982.361L1030.85 982.351L1030.3 984.274ZM579.358 855.288L578.806 857.211L578.808 857.211L579.358 855.288ZM327.333 782.892L327.885 780.97L327.878 780.968L327.871 780.966L327.333 782.892ZM216.688 752.003L217.226 750.077L216.14 753.926L216.688 752.003ZM579.358 855.288L578.81 857.212L579.911 853.366L579.358 855.288ZM107.395 719.304L106.811 721.217L106.826 721.221L106.841 721.226L107.395 719.304ZM-15.544 610.71L-13.7127 609.905L-13.7232 609.882L-13.7343 609.858L-15.544 610.71ZM-32.8783 431.77L-34.8121 431.26L-34.8148 431.27L-34.8174 431.28L-32.8783 431.77ZM225.293 260.07L224.728 261.989L224.74 261.992L225.293 260.07ZM697.994 396.175L697.44 398.097L698.549 394.254L697.994 396.175ZM697.994 396.175L697.438 398.097L697.443 398.098L697.994 396.175ZM1243.23 552.31L1242.68 554.233L1242.69 554.236L1243.23 552.31ZM1501.4 380.731L1503.33 381.24L1503.36 381.124L1503.38 381.005L1501.4 380.731ZM1503 373.009L1504.93 373.543L1504.94 373.5L1504.95 373.456L1503 373.009ZM1484.07 202.877L1482.25 203.718L1482.26 203.729L1482.26 203.741L1484.07 202.877ZM1361.13 94.2828L1361.75 92.3819L1361.71 92.3706L1361.68 92.3605L1361.13 94.2828ZM468.713 -162L469.265 -163.922L467.211 -164.512L466.758 -162.424L468.713 -162ZM610.461 116.364L611.02 114.443L611.018 114.443L610.461 116.364ZM1157.05 275.515L1156.49 277.435L1156.49 277.436L1157.05 275.515ZM1505.21 376.025L1505.77 374.105L1505.77 374.104L1505.21 376.025ZM1155.88 277.437L1628.46 413.542L1629.56 409.698L1156.99 273.593L1155.88 277.437ZM1628.47 413.546C1737.83 444.076 1800.08 572.637 1767.23 697.074L1771.09 698.096C1804.38 572.042 1741.48 440.941 1629.55 409.693L1628.47 413.546ZM1767.22 697.12C1753.24 755.514 1717.6 806.713 1667.23 840.72L1669.47 844.035C1720.66 809.475 1756.9 757.431 1771.11 698.051L1767.22 697.12ZM1667.2 840.741C1644.95 856.381 1619.36 866.852 1592.37 871.36L1593.03 875.306C1620.6 870.7 1646.75 860 1669.5 844.014L1667.2 840.741ZM1592.37 871.36C1565.38 875.868 1537.7 874.295 1511.42 866.759L1510.31 870.604C1537.17 878.304 1565.45 879.912 1593.03 875.306L1592.37 871.36ZM1511.42 866.76L1038.84 730.655L1037.74 734.499L1510.31 870.604L1511.42 866.76ZM1037.74 734.5L1400.04 838.026L1401.14 834.18L1038.84 730.654L1037.74 734.5ZM1401.14 834.18L1038.84 730.654L1037.74 734.5L1400.04 838.026L1401.14 834.18ZM1038.84 730.654L588.269 601.427L587.166 605.272L1037.74 734.499L1038.84 730.654ZM588.255 601.423C561.385 593.929 533.148 592.427 505.611 597.026L506.27 600.972C533.23 596.469 560.875 597.939 587.18 605.276L588.255 601.423ZM505.611 597.026C478.074 601.626 451.93 612.211 429.095 628.008L431.371 631.298C453.719 615.837 479.31 605.475 506.27 600.972L505.611 597.026ZM429.097 628.007C378.372 662.999 342.27 714.846 327.483 773.961L331.363 774.931C345.911 716.773 381.434 665.746 431.368 631.3L429.097 628.007ZM327.423 774.446C327.423 775.715 327.099 777.005 326.688 778.589C326.3 780.081 325.825 781.869 325.825 783.737H329.825C329.825 782.467 330.148 781.178 330.559 779.594C330.947 778.101 331.423 776.313 331.423 774.446H327.423ZM325.87 783.315C299.026 907.758 360.69 1032.65 469.142 1063.9L470.25 1060.06C364.296 1029.53 303.267 907.069 329.78 784.158L325.87 783.315ZM469.146 1063.9L1171.62 1264.92L1172.72 1261.08L470.246 1060.06L469.146 1063.9ZM1174.11 1263.47C1188.16 1205.86 1181.41 1145.26 1155.03 1091.98L1151.44 1093.76C1177.41 1146.19 1184.05 1205.83 1170.23 1262.53L1174.11 1263.47ZM1155.05 1092.03C1143.21 1066.32 1126.06 1043.3 1104.69 1024.43L1102.04 1027.42C1122.99 1045.93 1139.81 1068.5 1151.42 1093.71L1155.05 1092.03ZM1104.69 1024.43C1083.32 1005.55 1058.2 991.234 1030.92 982.372L1029.68 986.177C1056.45 994.87 1081.09 1008.92 1102.04 1027.42L1104.69 1024.43ZM1030.85 982.351L579.908 853.365L578.808 857.211L1029.75 986.197L1030.85 982.351ZM579.91 853.366L327.885 780.97L326.781 784.814L578.806 857.211L579.91 853.366ZM327.871 780.966L217.226 750.077L216.15 753.929L326.795 784.818L327.871 780.966ZM216.14 753.926L578.81 857.212L579.906 853.365L217.236 750.079L216.14 753.926ZM579.911 853.366L107.949 717.382L106.841 721.226L578.804 857.21L579.911 853.366ZM107.979 717.391C80.9916 709.146 56.1433 695.269 35.1384 676.715L32.4903 679.713C53.9265 698.648 79.2801 712.806 106.811 721.217L107.979 717.391ZM35.1384 676.715C14.1336 658.161 -2.53037 635.37 -13.7127 609.905L-17.3752 611.514C-5.95768 637.513 11.054 660.778 32.4903 679.713L35.1384 676.715ZM-13.7343 609.858C-39.879 554.299 -45.9469 491.656 -30.9393 432.26L-34.8174 431.28C-50.0523 491.576 -43.8915 555.167 -17.3536 611.561L-13.7343 609.858ZM-30.9446 432.281C1.91767 307.824 116.055 229.931 224.728 261.989L225.859 258.152C114.471 225.294 -1.53319 305.225 -34.8121 431.26L-30.9446 432.281ZM224.74 261.992L697.44 398.097L698.547 394.253L225.847 258.148L224.74 261.992ZM698.549 394.254L254.371 265.871L253.26 269.714L697.438 398.097L698.549 394.254ZM253.26 269.714L697.438 398.097L698.549 394.254L254.371 265.871L253.26 269.714ZM697.443 398.098L1242.68 554.233L1243.78 550.387L698.544 394.253L697.443 398.098ZM1242.69 554.236C1354.65 585.492 1470.17 507.307 1503.33 381.24L1499.47 380.222C1466.73 504.646 1353.1 580.905 1243.77 550.384L1242.69 554.236ZM1503.38 381.005C1503.73 378.487 1504.25 375.995 1504.93 373.543L1501.07 372.474C1500.34 375.096 1499.79 377.763 1499.42 380.457L1503.38 381.005ZM1504.95 373.456C1518.18 315.815 1511.47 255.489 1485.87 202.014L1482.26 203.741C1507.47 256.403 1514.08 315.804 1501.05 372.561L1504.95 373.456ZM1485.88 202.036C1473.98 176.358 1456.82 153.367 1435.46 134.5L1432.81 137.498C1453.76 156.001 1470.59 178.545 1482.25 203.718L1485.88 202.036ZM1435.46 134.5C1414.1 115.633 1389.01 101.296 1361.75 92.3819L1360.5 96.1838C1387.25 104.929 1411.86 118.994 1432.81 137.498L1435.46 134.5ZM1361.68 92.3605L469.265 -163.922L468.161 -160.078L1360.57 96.2051L1361.68 92.3605ZM466.758 -162.424C439.79 -37.9768 501.58 86.9144 609.905 118.285L611.018 114.443C505.183 83.7934 444.033 -38.6693 470.667 -161.576L466.758 -162.424ZM609.902 118.284L1156.49 277.435L1157.61 273.595L611.02 114.443L609.902 118.284ZM1156.49 277.436L1504.66 377.947L1505.77 374.104L1157.6 273.593L1156.49 277.436ZM1504.65 377.945L1601.65 406.18L1602.77 402.339L1505.77 374.105L1504.65 377.945Z" fill="#FFE3E3" mask="url(#path-1-inside-1_3515_26054)"/>
</svg>

